REM DIRINDEX 1\2\6,1\2\7,1\2\8,1\2\9,1\3\10,1\3\11,1\4\12,1\4\13,1\4\14,1\5\15,1\5\16,1\5\17
REM DIRNAME folder01,folder02,folder03,folder04,folder05,folder06,folder07,folder08,folder09,folder10,folder11,folder12,folder13,folder14,folder15,folder16,folder17
TITLE ""
FILE "1900_2_sec18_1758_1776.mp3" MP3
  TRACK 01 AUDIO
    TITLE "0:"
    INDEX 01 00:00:00
  TRACK 02 AUDIO
    TITLE "13:cjc020_5674"
    INDEX 01 00:00:17
  TRACK 03 AUDIO
    TITLE "0:"
    INDEX 01 00:01:44
  TRACK 04 AUDIO
    TITLE "14:cjc020_5675"
    INDEX 01 00:01:48
  TRACK 05 AUDIO
    TITLE "0:"
    INDEX 01 00:04:03
  TRACK 06 AUDIO
    TITLE "13:cjc020_5676"
    INDEX 01 00:04:60
  TRACK 07 AUDIO
    TITLE "0:"
    INDEX 01 00:06:00
  TRACK 08 AUDIO
    TITLE "14:cjc020_5677"
    INDEX 01 00:06:02
  TRACK 09 AUDIO
    TITLE "0:"
    INDEX 01 00:08:54
  TRACK 10 AUDIO
    TITLE "13:cjc020_5678"
    INDEX 01 00:09:32
  TRACK 11 AUDIO
    TITLE "0:"
    INDEX 01 00:10:53
  TRACK 12 AUDIO
    TITLE "14:cjc020_5679"
    INDEX 01 00:10:57
  TRACK 13 AUDIO
    TITLE "0:"
    INDEX 01 00:13:14
  TRACK 14 AUDIO
    TITLE "13:cjc020_5680"
    INDEX 01 00:14:02
  TRACK 15 AUDIO
    TITLE "0:"
    INDEX 01 00:14:74
  TRACK 16 AUDIO
    TITLE "14:cjc020_5681"
    INDEX 01 00:15:01
  TRACK 17 AUDIO
    TITLE "0:"
    INDEX 01 00:17:06
  TRACK 18 AUDIO
    TITLE "13:cjc020_5682"
    INDEX 01 00:17:61
  TRACK 19 AUDIO
    TITLE "0:"
    INDEX 01 00:19:03
  TRACK 20 AUDIO
    TITLE "14:cjc020_5683"
    INDEX 01 00:19:09
  TRACK 21 AUDIO
    TITLE "0:"
    INDEX 01 00:22:48
  TRACK 22 AUDIO
    TITLE "13:cjc020_5684"
    INDEX 01 00:23:28
  TRACK 23 AUDIO
    TITLE "0:"
    INDEX 01 00:24:55
  TRACK 24 AUDIO
    TITLE "14:cjc020_5685"
    INDEX 01 00:24:57
  TRACK 25 AUDIO
    TITLE "0:"
    INDEX 01 00:26:09
  TRACK 26 AUDIO
    TITLE "13:cjc020_5686"
    INDEX 01 00:26:66
  TRACK 27 AUDIO
    TITLE "0:"
    INDEX 01 00:28:21
  TRACK 28 AUDIO
    TITLE "14:cjc020_5687"
    INDEX 01 00:28:23
  TRACK 29 AUDIO
    TITLE "0:"
    INDEX 01 00:30:67
  TRACK 30 AUDIO
    TITLE "13:cjc020_5688"
    INDEX 01 00:31:47
  TRACK 31 AUDIO
    TITLE "0:"
    INDEX 01 00:32:72
  TRACK 32 AUDIO
    TITLE "14:cjc020_5689"
    INDEX 01 00:33:01
  TRACK 33 AUDIO
    TITLE "0:"
    INDEX 01 00:34:06
  TRACK 34 AUDIO
    TITLE "13:cjc020_5690"
    INDEX 01 00:34:59
  TRACK 35 AUDIO
    TITLE "0:"
    INDEX 01 00:36:15
  TRACK 36 AUDIO
    TITLE "14:cjc020_5691"
    INDEX 01 00:36:17
  TRACK 37 AUDIO
    TITLE "0:"
    INDEX 01 00:37:30
  TRACK 38 AUDIO
    TITLE "13:cjc020_5692"
    INDEX 01 00:38:06
  TRACK 39 AUDIO
    TITLE "0:"
    INDEX 01 00:39:35
  TRACK 40 AUDIO
    TITLE "14:cjc020_5693"
    INDEX 01 00:39:41
  TRACK 41 AUDIO
    TITLE "0:"
    INDEX 01 00:40:56
  TRACK 42 AUDIO
    TITLE "13:cjc020_5694"
    INDEX 01 00:41:40
  TRACK 43 AUDIO
    TITLE "0:"
    INDEX 01 00:42:59
  TRACK 44 AUDIO
    TITLE "14:cjc020_5695"
    INDEX 01 00:42:61
  TRACK 45 AUDIO
    TITLE "0:"
    INDEX 01 00:44:09
  TRACK 46 AUDIO
    TITLE "13:cjc020_5696"
    INDEX 01 00:44:71
  TRACK 47 AUDIO
    TITLE "0:"
    INDEX 01 00:46:09
  TRACK 48 AUDIO
    TITLE "14:cjc020_5697"
    INDEX 01 00:46:11
  TRACK 49 AUDIO
    TITLE "0:"
    INDEX 01 00:48:38
  TRACK 50 AUDIO
    TITLE "13:cjc020_5698"
    INDEX 01 00:49:21
  TRACK 51 AUDIO
    TITLE "0:"
    INDEX 01 00:50:27
  TRACK 52 AUDIO
    TITLE "14:cjc020_5699"
    INDEX 01 00:50:31
  TRACK 53 AUDIO
    TITLE "0:"
    INDEX 01 00:52:47
  TRACK 54 AUDIO
    TITLE "13:cjc020_5700"
    INDEX 01 00:53:27
  TRACK 55 AUDIO
    TITLE "0:"
    INDEX 01 00:54:34
  TRACK 56 AUDIO
    TITLE "14:cjc020_5701"
    INDEX 01 00:54:36
  TRACK 57 AUDIO
    TITLE "0:"
    INDEX 01 00:58:42
  TRACK 58 AUDIO
    TITLE "13:cjc020_5702"
    INDEX 01 00:59:20
  TRACK 59 AUDIO
    TITLE "0:"
    INDEX 01 01:00:33
  TRACK 60 AUDIO
    TITLE "14:cjc020_5703"
    INDEX 01 01:00:35
  TRACK 61 AUDIO
    TITLE "0:"
    INDEX 01 01:02:63
  TRACK 62 AUDIO
    TITLE "12:cjc020_5704"
    INDEX 01 01:04:37
  TRACK 63 AUDIO
    TITLE "0:"
    INDEX 01 01:06:08
  TRACK 64 AUDIO
    TITLE "13:cjc020_5705"
    INDEX 01 01:07:06
  TRACK 65 AUDIO
    TITLE "0:"
    INDEX 01 01:08:21
  TRACK 66 AUDIO
    TITLE "14:cjc020_5706"
    INDEX 01 01:08:23
  TRACK 67 AUDIO
    TITLE "0:"
    INDEX 01 01:10:08
  TRACK 68 AUDIO
    TITLE "13:cjc020_5707"
    INDEX 01 01:10:65
  TRACK 69 AUDIO
    TITLE "0:"
    INDEX 01 01:11:72
  TRACK 70 AUDIO
    TITLE "14:cjc020_5708"
    INDEX 01 01:11:74
  TRACK 71 AUDIO
    TITLE "0:"
    INDEX 01 01:13:36
  TRACK 72 AUDIO
    TITLE "13:cjc020_5709"
    INDEX 01 01:14:16
  TRACK 73 AUDIO
    TITLE "0:"
    INDEX 01 01:15:15
  TRACK 74 AUDIO
    TITLE "14:cjc020_5710"
    INDEX 01 01:15:17
  TRACK 75 AUDIO
    TITLE "0:"
    INDEX 01 01:19:50
  TRACK 76 AUDIO
    TITLE "13:cjc020_5711"
    INDEX 01 01:20:32
  TRACK 77 AUDIO
    TITLE "0:"
    INDEX 01 01:21:39
  TRACK 78 AUDIO
    TITLE "14:cjc020_5712"
    INDEX 01 01:21:41
  TRACK 79 AUDIO
    TITLE "0:"
    INDEX 01 01:24:08
